<mxfile host="app.diagrams.net" modified="2024-01-09T03:33:13.308Z" agent="Mozilla/5.0 (Windows NT 10.0; Win64; x64) AppleWebKit/537.36 (KHTML, like Gecko) Chrome/120.0.0.0 Safari/537.36 Edg/120.0.0.0" etag="z3-8Ajd-LMGj9YVYVSlH" version="22.1.17" type="device">
  <diagram name="Page-1" id="xiu2doB8irqlv-GOHepn">
    <mxGraphModel dx="1048" dy="623" grid="1" gridSize="10" guides="1" tooltips="1" connect="1" arrows="1" fold="1" page="1" pageScale="1" pageWidth="850" pageHeight="1100" math="0" shadow="0">
      <root>
        <mxCell id="0" />
        <mxCell id="1" parent="0" />
        <mxCell id="7Ftm2F4reEvMCFT8a7Az-24" style="edgeStyle=orthogonalEdgeStyle;rounded=0;orthogonalLoop=1;jettySize=auto;html=1;entryX=0.5;entryY=1;entryDx=0;entryDy=0;" edge="1" parent="1" source="7Ftm2F4reEvMCFT8a7Az-1" target="7Ftm2F4reEvMCFT8a7Az-2">
          <mxGeometry relative="1" as="geometry" />
        </mxCell>
        <mxCell id="7Ftm2F4reEvMCFT8a7Az-1" value="Actor" style="shape=umlActor;verticalLabelPosition=bottom;verticalAlign=top;html=1;outlineConnect=0;" vertex="1" parent="1">
          <mxGeometry x="170" y="280" width="30" height="60" as="geometry" />
        </mxCell>
        <mxCell id="7Ftm2F4reEvMCFT8a7Az-8" style="edgeStyle=orthogonalEdgeStyle;rounded=0;orthogonalLoop=1;jettySize=auto;html=1;exitX=0;exitY=0.75;exitDx=0;exitDy=0;" edge="1" parent="1" source="7Ftm2F4reEvMCFT8a7Az-2">
          <mxGeometry relative="1" as="geometry">
            <mxPoint x="130" y="280" as="targetPoint" />
          </mxGeometry>
        </mxCell>
        <mxCell id="7Ftm2F4reEvMCFT8a7Az-10" style="edgeStyle=orthogonalEdgeStyle;rounded=0;orthogonalLoop=1;jettySize=auto;html=1;exitX=0;exitY=0.5;exitDx=0;exitDy=0;entryX=1;entryY=0.5;entryDx=0;entryDy=0;" edge="1" parent="1" source="7Ftm2F4reEvMCFT8a7Az-2" target="7Ftm2F4reEvMCFT8a7Az-4">
          <mxGeometry relative="1" as="geometry" />
        </mxCell>
        <mxCell id="7Ftm2F4reEvMCFT8a7Az-12" style="edgeStyle=orthogonalEdgeStyle;rounded=0;orthogonalLoop=1;jettySize=auto;html=1;exitX=0;exitY=0.25;exitDx=0;exitDy=0;" edge="1" parent="1" source="7Ftm2F4reEvMCFT8a7Az-2">
          <mxGeometry relative="1" as="geometry">
            <mxPoint x="130" y="70" as="targetPoint" />
          </mxGeometry>
        </mxCell>
        <mxCell id="7Ftm2F4reEvMCFT8a7Az-2" value="User" style="rounded=0;whiteSpace=wrap;html=1;" vertex="1" parent="1">
          <mxGeometry x="170" y="140" width="120" height="60" as="geometry" />
        </mxCell>
        <mxCell id="7Ftm2F4reEvMCFT8a7Az-3" value="Name" style="ellipse;whiteSpace=wrap;html=1;" vertex="1" parent="1">
          <mxGeometry y="30" width="120" height="80" as="geometry" />
        </mxCell>
        <mxCell id="7Ftm2F4reEvMCFT8a7Az-4" value="Phone Number" style="ellipse;whiteSpace=wrap;html=1;" vertex="1" parent="1">
          <mxGeometry y="130" width="120" height="80" as="geometry" />
        </mxCell>
        <mxCell id="7Ftm2F4reEvMCFT8a7Az-5" value="Credibility" style="ellipse;whiteSpace=wrap;html=1;" vertex="1" parent="1">
          <mxGeometry y="240" width="120" height="80" as="geometry" />
        </mxCell>
        <mxCell id="7Ftm2F4reEvMCFT8a7Az-13" value="Withdraw" style="rounded=0;whiteSpace=wrap;html=1;" vertex="1" parent="1">
          <mxGeometry x="340" y="220" width="120" height="60" as="geometry" />
        </mxCell>
        <mxCell id="7Ftm2F4reEvMCFT8a7Az-14" value="Receive" style="rounded=0;whiteSpace=wrap;html=1;" vertex="1" parent="1">
          <mxGeometry x="340" y="300" width="120" height="60" as="geometry" />
        </mxCell>
        <mxCell id="7Ftm2F4reEvMCFT8a7Az-18" style="edgeStyle=orthogonalEdgeStyle;rounded=0;orthogonalLoop=1;jettySize=auto;html=1;exitX=0.5;exitY=1;exitDx=0;exitDy=0;entryX=0.5;entryY=0;entryDx=0;entryDy=0;" edge="1" parent="1" source="7Ftm2F4reEvMCFT8a7Az-15" target="7Ftm2F4reEvMCFT8a7Az-16">
          <mxGeometry relative="1" as="geometry" />
        </mxCell>
        <mxCell id="7Ftm2F4reEvMCFT8a7Az-15" value="Mandate Autopay" style="rounded=0;whiteSpace=wrap;html=1;" vertex="1" parent="1">
          <mxGeometry x="340" y="380" width="120" height="60" as="geometry" />
        </mxCell>
        <mxCell id="7Ftm2F4reEvMCFT8a7Az-16" value="Authorization" style="ellipse;whiteSpace=wrap;html=1;" vertex="1" parent="1">
          <mxGeometry x="340" y="470" width="120" height="80" as="geometry" />
        </mxCell>
        <mxCell id="7Ftm2F4reEvMCFT8a7Az-23" style="edgeStyle=orthogonalEdgeStyle;rounded=0;orthogonalLoop=1;jettySize=auto;html=1;entryX=1;entryY=0.5;entryDx=0;entryDy=0;" edge="1" parent="1" source="7Ftm2F4reEvMCFT8a7Az-22" target="7Ftm2F4reEvMCFT8a7Az-2">
          <mxGeometry relative="1" as="geometry">
            <Array as="points">
              <mxPoint x="590" y="170" />
            </Array>
          </mxGeometry>
        </mxCell>
        <mxCell id="7Ftm2F4reEvMCFT8a7Az-22" value="Actor" style="shape=umlActor;verticalLabelPosition=bottom;verticalAlign=top;html=1;outlineConnect=0;" vertex="1" parent="1">
          <mxGeometry x="590" y="270" width="30" height="60" as="geometry" />
        </mxCell>
        <mxCell id="7Ftm2F4reEvMCFT8a7Az-25" value="" style="swimlane;startSize=0;" vertex="1" parent="1">
          <mxGeometry x="300" y="200" width="210" height="380" as="geometry" />
        </mxCell>
        <mxCell id="7Ftm2F4reEvMCFT8a7Az-27" style="edgeStyle=orthogonalEdgeStyle;rounded=0;orthogonalLoop=1;jettySize=auto;html=1;entryX=-0.006;entryY=0.291;entryDx=0;entryDy=0;entryPerimeter=0;" edge="1" parent="1" source="7Ftm2F4reEvMCFT8a7Az-1" target="7Ftm2F4reEvMCFT8a7Az-25">
          <mxGeometry relative="1" as="geometry" />
        </mxCell>
        <mxCell id="7Ftm2F4reEvMCFT8a7Az-30" style="edgeStyle=orthogonalEdgeStyle;rounded=0;orthogonalLoop=1;jettySize=auto;html=1;entryX=1.01;entryY=0.268;entryDx=0;entryDy=0;entryPerimeter=0;" edge="1" parent="1">
          <mxGeometry relative="1" as="geometry">
            <mxPoint x="590" y="300" as="sourcePoint" />
            <mxPoint x="512.0999999999999" y="301.84000000000003" as="targetPoint" />
            <Array as="points">
              <mxPoint x="590" y="301" />
              <mxPoint x="552" y="301" />
              <mxPoint x="552" y="302" />
            </Array>
          </mxGeometry>
        </mxCell>
      </root>
    </mxGraphModel>
  </diagram>
</mxfile>
